<svg width="507" height="539" fill="none" xmlns="http://www.w3.org/2000/svg"><g filter="url(#filter0_f_459_7706)"><path d="M52.574 36.468C23.321 36.468 25.905 199.55 0 199.55V539h507V295.413c-4.993 0-10.61-45.92-29.078-45.92-23.086 0-9.34 121.213-35.95 121.213-26.61 0-10.221-196.946-44.938-196.946-34.716 0-14.803 135.147-42.294 135.147-45.466 0-29.958-109.357-57.449-109.357-27.492 0-28.549 179.595-52.339 179.595C221.161 379.145 241.427 0 205.829 0c-29.253 0-15.331 249.493-39.122 249.493-23.79 0-13.744-116.352-34.186-116.352-20.443 0-13.286 116.352-43.597 116.352-33.129 0-7.096-213.025-36.35-213.025z" fill="url(#paint0_linear_459_7706)"/></g><defs><linearGradient id="paint0_linear_459_7706" x1="61.254" y1="77.993" x2="495.063" y2="528.285" gradientUnits="userSpaceOnUse"><stop offset=".014" stop-color="#2697FF"/><stop offset=".229" stop-color="#6431F5"/><stop offset=".349" stop-color="#6431F5"/><stop offset="1" stop-color="#F53E15"/></linearGradient><filter id="filter0_f_459_7706" x="-255.298" y="-255.298" width="1017.6" height="1049.6" filterUnits="userSpaceOnUse" color-interpolation-filters="sRGB"><feFlood flood-opacity="0" result="BackgroundImageFix"/><feBlend in="SourceGraphic" in2="BackgroundImageFix" result="shape"/><feGaussianBlur stdDeviation="127.649" result="effect1_foregroundBlur_459_7706"/></filter></defs></svg>