<svg width="1193" height="456" fill="none" xmlns="http://www.w3.org/2000/svg"><g opacity=".4" filter="url(#filter0_f_647_7822)"><path d="M300.866 491.488c-106.35 33.88-100.662 154.685 6.639 155.7 264.885 2.506 891.025 0 891.025 0 79.35-112.138 87.03-387.255-97.98-420.496-112.427-20.2-186.927 77.952-323.285 138.61-145.642 64.787-340.594 82.922-476.399 126.186z" fill="#BE2C2C"/></g><g opacity=".5" filter="url(#filter1_f_647_7822)"><path d="M903.987 440.897c-78.797 58.049-423.537 59.05-386.952 150.127 33.771 91.077 644.455 16.013 742.945 0 98.5-16.014 52.07-175.149-75.98-236.2-128.05-61.052-201.215 28.023-280.013 86.073z" fill="#1428DC"/></g><defs><filter id="filter0_f_647_7822" x="0" y="0" width="1475.65" height="872.302" filterUnits="userSpaceOnUse" color-interpolation-filters="sRGB"><feFlood flood-opacity="0" result="BackgroundImageFix"/><feBlend in="SourceGraphic" in2="BackgroundImageFix" result="shape"/><feGaussianBlur stdDeviation="112" result="effect1_foregroundBlur_647_7822"/></filter><filter id="filter1_f_647_7822" x="266.326" y="86.302" width="1294.67" height="797" filterUnits="userSpaceOnUse" color-interpolation-filters="sRGB"><feFlood flood-opacity="0" result="BackgroundImageFix"/><feBlend in="SourceGraphic" in2="BackgroundImageFix" result="shape"/><feGaussianBlur stdDeviation="124" result="effect1_foregroundBlur_647_7822"/></filter></defs></svg>