<svg width="280" height="29" fill="none" xmlns="http://www.w3.org/2000/svg"><path fill-rule="evenodd" clip-rule="evenodd" d="M3.362 4.128v-4.1h13.245l1.497 1.443v1.882h1.866l1.496 1.442V20.71H4.84l-1.477-1.441v-1.883H1.495L0 15.96V9.803L1.498 8.34H17.32V4.128H3.362zm13.958 8.29H4.125v4.213H17.32v-4.212zM29.084 1.47L30.56.027h11.768l1.497 1.443v1.882h1.866l1.496 1.442v19.457l-1.495 1.423h-1.867v1.882L42.328 29H29.084v-4.079H42.91V20.71H30.56l-1.477-1.441v-1.884h-1.868l-1.495-1.423V4.795l1.497-1.442h1.866V1.469zM43.04 4.127H29.846V16.63h13.195V4.128zM54.805 1.47L56.282.027H68.05l1.496 1.443v1.882h1.866l1.497 1.442v7.624H55.568v4.212h15.844v4.078h-15.13l-1.477-1.441v-1.883h-1.867l-1.495-1.424V4.795l1.496-1.442h1.866V1.469zm13.957 2.658H55.568V8.34h13.194V4.128z" fill="#0C0424"/><path d="M80.526 1.47L82.003.027H93.77l1.497 1.443v1.882h1.865l1.497 1.442V20.71h-4.146V4.128H81.288v16.581h-4.125V4.796l1.496-1.443h1.866V1.469zm22.359 6.181V.028h4.125V8.34h13.195V.028h4.146V7.65l-1.496 1.443h-1.866v2.55h1.866l1.496 1.442v7.623h-4.146v-8.29H107.01v8.29h-4.125v-7.623l1.497-1.443h1.866v-2.55h-1.866l-1.497-1.442zm25.722 8.31V.028h4.125V16.63h13.194V.028h4.147v24.224l-1.495 1.423h-1.868v1.882L145.214 29h-13.245v-4.079h13.957V20.71h-12.481l-1.476-1.441v-1.883h-1.867l-1.495-1.424zm25.721-10.404V.955l.317-.309h.301V.337l.313-.31h4.663l.317.31v.31h.301l.313.308v4.602l-.313.309h-.301v.309l-.317.305h-4.663l-.313-.305v-.31h-.301l-.317-.308zm.9.024h4.725V.93h-4.725v4.65z" fill="#0C0424"/><path fill-rule="evenodd" clip-rule="evenodd" d="M156.121 4.993V1.52h2.127l.276.273v.262h.26l.276.27v.785l-.276.27h-.284v.29h.284l.276.27v1.054h-.785V3.918h-1.365v1.075h-.789zm.789-1.86h1.365v-.83h-1.365v.83z" fill="#0C0424"/><path d="M186.555 0h-9.434l-1.526 1.507v1.778h-1.739l-1.546 1.508V20.72h4.314V4.336h10.427v16.383h4.336V4.336h10.427v16.383h4.315V4.793l-1.547-1.508h-1.739V1.507L201.317 0h-9.434l-1.547 1.508v1.777h-2.234V1.508L186.555 0zm27.375 0h-4.315v15.946l1.546 1.488h1.739v1.778l1.527 1.507h9.434l1.546-1.508v-1.777h1.74l1.546-1.488V0h-4.336v16.404H213.93V0zm35.684 0h-12.623l-1.527 1.507v1.778h-1.738l-1.547 1.508v6.227l1.547 1.508h13.194v3.876h-13.098v4.315h12.603l1.546-1.508v-1.777h1.74l1.545-1.488V9.741l-1.547-1.528h-13.215V4.336h13.12V0zm9.444 0h-4.315v20.72h4.315V0zM280 0h-12.623l-1.527 1.507v1.778h-1.738l-1.547 1.508v11.153l1.546 1.488h1.739v1.778l1.527 1.507H280v-4.315h-13.12V4.336H280V0z" fill="#0C0424"/></svg>