<svg width="161" height="29" fill="none" xmlns="http://www.w3.org/2000/svg"><path fill-rule="evenodd" clip-rule="evenodd" d="M3.365 4.104V0h13.257l1.498 1.444v1.884h1.868l1.498 1.444v15.93H4.843l-1.478-1.444v-1.885H1.497L0 15.95V9.784L1.5 8.32h15.835V4.104H3.365zm13.97 8.299H4.13v4.216h13.206v-4.216zM29.11 1.443L30.588 0h11.779l1.498 1.444v1.884h1.867l1.498 1.444v19.476l-1.496 1.424h-1.869v1.884L42.367 29H29.11v-4.083h13.84v-4.216H30.589L29.11 19.26v-1.886h-1.869l-1.496-1.424V4.772l1.498-1.444h1.867V1.443zm13.97 2.661H29.874V16.62H43.08V4.104zm11.775-2.661L56.333 0h11.779l1.498 1.444v1.884h1.867l1.498 1.444v7.63H55.618v4.217h15.86V20.7H56.332l-1.478-1.442v-1.886h-1.869L51.49 15.95V4.772l1.497-1.444h1.868V1.443zm13.97 2.661H55.618V8.32h13.207V4.104z" fill="#fff"/><path d="M80.6 1.443L82.078 0h11.779l1.498 1.444v1.884h1.867l1.498 1.444v15.93h-4.15V4.103H81.363V20.7h-4.129V4.772l1.498-1.444H80.6V1.443zm22.379 6.187V0h4.129v8.32h13.207V0h4.15v7.63l-1.498 1.445h-1.868v2.552h1.868l1.498 1.444v7.63h-4.15v-8.298h-13.207V20.7h-4.129v-7.63l1.498-1.444h1.868V9.075h-1.868l-1.498-1.444zm25.745 8.319V0h4.129v16.619h13.206V0h4.151v24.248l-1.497 1.424h-1.869v1.884L145.346 29h-13.257v-4.083h13.97v-4.216h-12.492l-1.478-1.442v-1.886h-1.869l-1.496-1.424zm25.745-10.415V.928l.317-.31h.302V.31l.313-.309h4.667l.317.31V.62h.302l.313.31v4.605l-.313.31h-.302v.31l-.317.305h-4.667l-.313-.306v-.31h-.302l-.317-.309zm.9.024h4.73V.905h-4.73v4.653z" fill="#fff"/><path fill-rule="evenodd" clip-rule="evenodd" d="M156.264 4.97V1.492h2.128l.277.274v.263h.26l.277.27v.785l-.277.27h-.284v.29h.284l.277.27V4.97h-.786V3.894h-1.367V4.97h-.789zm.789-1.862h1.367v-.83h-1.367v.83z" fill="#fff"/></svg>